<?xml version="1.0" encoding="utf-8"?>
<!-- Generator: Adobe Illustrator 15.0.0, SVG Export Plug-In . SVG Version: 6.00 Build 0)  -->
<!DOCTYPE svg PUBLIC "-//W3C//DTD SVG 1.1//EN" "http://www.w3.org/Graphics/SVG/1.1/DTD/svg11.dtd">
<svg version="1.1" id="Layer_1" xmlns="http://www.w3.org/2000/svg" xmlns:xlink="http://www.w3.org/1999/xlink" x="0px" y="0px"
	 width="599px" height="138.896px" viewBox="0 0 599 138.896" enable-background="new 0 0 599 138.896" xml:space="preserve">
<path fill="#FFFFFF" d="M587.052,0.524c-5.486,0-10.312,1.703-14.478,5.104c-4.166,3.4-7.811,8.054-10.938,13.955l-1.353-10.521
	c-0.35-2.428-1.059-4.128-2.137-5.103c-1.078-0.973-2.967-1.458-5.674-1.458h-15.521v28.144v22.146v8.896v8.894v0.056v8.895v8.896
	v0.043v8.894v8.558h0.496h0.078h13.021h12.858v-8.784V88.24v-0.054V79.29v-3.896v-5v-0.04v-8.896v-6.896v-2v-0.053v-8.896v-1.845
	c0.273-0.703,0.557-1.382,0.847-2.039c0.012-0.024,0.022-0.049,0.033-0.074c0.285-0.641,0.577-1.262,0.877-1.862
	c0.473-0.945,0.959-1.85,1.473-2.69c1.18-1.942,2.516-3.594,4.01-4.947c1.492-1.354,3.193-2.377,5.102-3.071
	c1.908-0.691,4.08-1.041,6.511-1.041c1.664,0,3.473,0.157,5.416,0.469c0.223,0.035,0.418,0.062,0.627,0.094l0.01-0.007l-0.006,0.007
	c1.629,0.245,2.924,0.374,3.848,0.374c1.181,0,2.117-0.261,2.812-0.778c0.692-0.521,1.112-1.407,1.25-2.657l0.25-2.515l0.957-9.546
	l0.771-7.728C595.276,1.603,591.562,0.524,587.052,0.524z"/>
<path fill="#FFFFFF" d="M514.496,40.177l-0.002-0.057c-0.03-2.915-0.278-5.709-0.739-8.388l-0.028,0.019l0.026-0.019
	c-0.143-0.816-0.309-1.62-0.486-2.417c-0.038-0.169-0.077-0.337-0.117-0.505c-0.346-1.465-0.749-2.896-1.236-4.283
	c-0.041-0.116-0.096-0.221-0.137-0.337c-1.729-4.782-4.209-8.929-7.467-12.422c-3.33-3.576-7.396-6.353-12.185-8.331
	c-4.786-1.979-10.202-2.969-16.247-2.969c-8.402,0-16.214,1.354-23.433,4.062c-7.223,2.708-13.817,6.839-19.785,12.394l4.787,8.332
	c0.767,1.318,1.787,2.447,3.073,3.384c1.286,0.938,2.829,1.407,4.636,1.407c2.081,0,3.959-0.45,5.625-1.354
	c1.664-0.9,3.467-1.891,5.416-2.969c1.938-1.076,4.182-2.064,6.717-2.969c2.53-0.901,5.744-1.354,9.633-1.354
	c5.21,0,9.197,1.563,11.978,4.688c0.755,0.85,1.394,1.848,1.942,2.961c0.31,0.631,0.583,1.31,0.828,2.023
	c0.035,0.104,0.074,0.206,0.108,0.312c0.103,0.312,0.193,0.633,0.282,0.959c0.056,0.205,0.106,0.414,0.158,0.625
	c0.07,0.294,0.144,0.585,0.206,0.89c0.1,0.495,0.188,1.005,0.263,1.529c0.032,0.221,0.057,0.452,0.084,0.679
	c0.051,0.417,0.097,0.842,0.133,1.276c0.019,0.211,0.035,0.421,0.05,0.635c0.043,0.649,0.076,1.312,0.089,1.999
	c0.007,0.269,0.021,0.521,0.021,0.794v5.521c-3.516,0.083-6.834,0.258-10,0.503c-7.338,0.567-13.756,1.557-19.213,2.987
	c-7.812,2.047-14.062,4.614-18.748,7.706c-4.688,3.09-8.004,6.545-9.947,10.36c-1.942,3.819-2.915,7.639-2.915,11.457
	c0,0.739,0.05,1.44,0.089,2.151c0.151,2.878,0.611,5.53,1.385,7.947l0.025-0.019l-0.022,0.021c0.22,0.69,0.438,1.38,0.711,2.032
	c0.7,1.684,1.549,3.229,2.53,4.646l0.022,0.037c1.056,1.521,2.265,2.897,3.647,4.115c0.492,0.438,1.021,0.833,1.549,1.229
	l0.006-0.003l-0.006,0.005c2.155,1.622,4.601,2.918,7.332,3.885l0.037,0.017c0.208,0.072,0.396,0.164,0.606,0.231
	c2.937,0.971,6.123,1.534,9.541,1.731c0.871,0.048,1.742,0.091,2.644,0.091c3.608,0,6.895-0.296,9.846-0.886
	c0.934-0.188,1.815-0.453,2.715-0.698l0.127-0.033c1.896-0.522,3.746-1.131,5.49-1.924c2.602-1.179,5.117-2.637,7.547-4.373
	s4.965-3.75,7.604-6.041l1.938,5.806l0.01-0.004l-0.01,0.007l0.354,1.065c0.765,2.222,1.808,3.697,3.123,4.427
	c0.275,0.151,0.593,0.277,0.916,0.396c1.24,0.459,2.834,0.696,4.812,0.696h12.084V93.626v-8.895l-0.008,0.005l0.008-0.008v-8.893
	v-0.056v-4.894v-4v-8.894v-0.046v-8.895v-8.281C514.521,40.571,514.498,40.379,514.496,40.177z M488.69,75.642v3.354
	c-3.402,3.541-6.824,6.162-10.262,7.862c-2.806,1.391-6.062,2.181-9.719,2.436c-0.025,0.002-0.053,0.009-0.077,0.011l0.009-0.008
	c-0.802,0.056-1.603,0.113-2.447,0.113c-3.295,0-5.988-0.609-8.145-1.771c-0.48-0.261-0.961-0.514-1.388-0.83
	c-0.627-0.468-1.159-1.033-1.608-1.688c-0.646-0.942-1.109-2.07-1.418-3.361c0,0-0.037,0.009-0.091,0.022l0.079-0.068
	c-0.267-1.131-0.448-2.349-0.448-3.758c0-2.083,0.57-4.026,1.716-5.834c0.078-0.121,0.188-0.235,0.273-0.354l-0.014,0.007
	l0.014-0.009c1.17-1.653,2.983-3.121,5.508-4.381c0.739-0.37,1.565-0.719,2.446-1.053l0.011-0.007l-0.009,0.007
	c2.331-0.888,5.134-1.648,8.435-2.281c2.793-0.531,6.078-0.938,9.748-1.25l0.338-0.231l-0.246,0.225
	c2.283-0.191,4.678-0.354,7.295-0.46v4.37l0.016-0.01l-0.016,0.013v2.997V75.6V75.642L488.69,75.642z"/>
<path fill="#FFFFFF" d="M415.944,72.906c0-2.784-0.322-5.28-0.912-7.537l-0.021,0.015l0.021-0.018
	c-0.293-1.118-0.629-2.196-1.065-3.188c-0.576-1.298-1.246-2.495-1.984-3.621l-0.018-0.033c-0.955-1.453-2.031-2.778-3.259-3.947
	c-0.563-0.539-1.198-0.992-1.803-1.488l-0.008,0.004l0.006-0.004c-1.729-1.417-3.557-2.713-5.59-3.771
	c-0.371-0.192-0.752-0.35-1.125-0.536l-0.045-0.021c-2.379-1.18-4.81-2.246-7.32-3.142c-0.252-0.09-0.481-0.164-0.731-0.253
	c-2.65-0.939-5.25-1.839-7.75-2.662c-0.314-0.104-0.589-0.222-0.896-0.327c-2.371-0.814-4.562-1.688-6.498-2.643
	c-2.188-1.075-3.942-2.325-5.26-3.748c-0.247-0.266-0.464-0.547-0.663-0.839c-0.026-0.039-0.055-0.078-0.081-0.116
	c-0.196-0.302-0.373-0.613-0.522-0.94c-0.474-1.026-0.714-2.181-0.714-3.467c0-3.194,1.146-5.745,3.438-7.656
	c2.289-1.908,5.518-2.865,9.684-2.865c2.707,0,5.103,0.332,7.188,0.99c2.08,0.66,3.938,1.389,5.572,2.187
	c1.631,0.801,3.122,1.528,4.475,2.189c1.356,0.66,2.658,0.989,3.908,0.989c1.18,0,2.172-0.226,2.967-0.679
	c0.799-0.45,1.543-1.266,2.242-2.446l5.938-9.582c-1.807-1.873-3.873-3.609-6.201-5.207c-2.321-1.598-4.895-2.969-7.702-4.115
	c-2.814-1.144-5.816-2.029-9.011-2.654s-6.494-0.937-9.896-0.937c-6.246,0-11.713,0.868-16.4,2.602
	c-4.688,1.736-8.608,4.062-11.768,6.979c-3.158,2.918-5.539,6.303-7.14,10.156c-1.594,3.853-2.393,7.933-2.393,12.236
	c0,0.115,0.007,0.223,0.008,0.336l0,0c0,0.011,0.001,0.02,0.001,0.028c0.018,2.246,0.187,4.333,0.51,6.253
	c0.002,0.003,0.003,0.006,0.003,0.009c0.107,0.638,0.23,1.257,0.372,1.857c0.014,0.052,0.028,0.099,0.04,0.148
	c0.135,0.552,0.276,1.091,0.438,1.609c0.041,0.13,0.09,0.25,0.132,0.377c0.144,0.434,0.287,0.865,0.45,1.277
	c0.096,0.242,0.208,0.468,0.311,0.703c0.125,0.281,0.242,0.573,0.377,0.846c0.247,0.501,0.514,0.982,0.796,1.446
	c2.293,3.751,5.174,6.771,8.646,9.061c0.986,0.653,2.002,1.253,3.031,1.827c2.508,1.396,5.143,2.562,7.903,3.493
	c0.089,0.029,0.173,0.064,0.263,0.096c2.751,0.91,5.335,1.798,7.834,2.674c0.006,0.014,0.01,0.028,0.021,0.032
	c2.131,0.81,7.445,2.849,8.723,3.538c1.186,0.64,2.286,1.312,3.26,2.034c1.102,0.816,1.922,1.8,2.492,2.929l0.021,0.03
	c0.607,1.215,0.924,2.602,0.924,4.176c0,1.458-0.258,2.883-0.778,4.27c-0.125,0.161-0.188,0.354-0.271,0.534
	c-0.516,1.164-1.199,2.234-2.125,3.164c-1.078,1.078-2.5,1.926-4.271,2.551c-0.906,0.318-1.91,0.553-3.002,0.709l-0.021,0.015
	l0.017-0.015c-1.048,0.151-2.177,0.23-3.398,0.23c-3.27,0-5.99-0.408-8.189-1.208l-0.043-0.013c-0.03-0.014-0.067-0.019-0.1-0.03
	c-2.221-0.833-4.129-1.754-5.729-2.761c-0.562-0.354-1.091-0.685-1.621-1.017c-0.979-0.611-1.929-1.201-2.804-1.743
	c-1.356-0.833-2.801-1.251-4.323-1.251c-0.668,0-1.248,0.098-1.814,0.211c-0.029,0.006-0.066,0.003-0.094,0.011
	c-0.812,0.17-1.554,0.423-2.156,0.821c-0.816,0.548-1.527,1.291-2.176,2.14c-0.031,0.038-0.062,0.073-0.092,0.114l0,0
	c-0.142,0.191-0.308,0.352-0.439,0.56l-6.141,9.996c0.563,0.545,1.225,1.051,1.854,1.566l0.008-0.005l-0.006,0.005
	c1.463,1.204,3.037,2.363,4.859,3.433c0.565,0.334,1.18,0.622,1.768,0.937l0.031,0.021c2.092,1.122,4.26,2.164,6.584,3.056
	c0.43,0.164,0.885,0.286,1.32,0.438c2.592,0.916,5.26,1.681,8.055,2.217c0.471,0.091,0.951,0.127,1.424,0.202l0.062,0.011
	c2.778,0.45,5.576,0.724,8.403,0.724c1.285,0,2.521-0.061,3.744-0.129l0.011-0.004l-0.007,0.004
	c4.99-0.274,9.507-1.081,13.486-2.475c4.965-1.734,9.131-4.129,12.498-7.187c3.371-3.055,5.922-6.698,7.658-10.936
	c0.42-1.025,0.781-2.072,1.098-3.141l0.004-0.005c0.924-3.104,1.396-6.409,1.465-9.893l0.002-0.059
	C415.912,73.406,415.944,73.163,415.944,72.906z"/>
<g>
	<path fill="#FFFFFF" d="M116.977,128.362l-0.004,0.003l-5.921-6.896l-0.053,0.019l0.035-0.022l-4.78-5.621l-4.787-5.629
		l-4.783-5.626l-0.026-0.033l-4.783-5.629l-4.783-5.626l-0.062,0.041l0.052-0.051l-4.784-5.626l-4.783-5.627l-2.757-3.241
		c-1.312-1.547-3.631-1.733-5.178-0.421c-1.547,1.313-1.733,3.633-0.42,5.179l2.255,2.652l4.784,5.626l4.782,5.626l0.047-0.019
		l-0.04,0.028l4.784,5.626l0.019-0.012l-0.017,0.015l4.783,5.623l0.027,0.035l4.784,5.627l4.782,5.626l4.78,5.623l0.062-0.043
		l-0.046,0.046l4.962,5.791l2.993,3.522l0.021-0.01l1.318,1.552c0.727,0.854,1.762,1.293,2.803,1.293
		c0.84,0,1.686-0.285,2.376-0.873c1.546-1.312,1.732-3.632,0.421-5.179L116.977,128.362z"/>
	<path fill="#FFFFFF" d="M144.385,131.515l-1.12-1.153l0.005-0.004l-3.662-3.774l-0.013,0.009l-3.938-4.059l-5.188-5.349
		l-0.033-0.035l-5.186-5.35l-0.008,0.005l0.006-0.005l-5.187-5.351l-0.024-0.025l-5.189-5.351l-1.658-1.71
		c0.014-0.004,0.025-0.008,0.025-0.008l-8.773-9.017l-5.188-5.351l-0.065,0.044l0.056-0.055l-1.765-1.818
		c1.084-2.035,2.056-4.183,2.896-6.459c0.21-0.569,0.358-1.181,0.552-1.763l-0.02,0.015l0.02-0.02
		c1.088-3.308,1.889-6.814,2.395-10.527l0.009-0.062c0.401-2.991,0.645-6.094,0.668-9.349l-0.01,0.003l0.01-0.006
		c0.002-0.197,0.021-0.383,0.021-0.579c0-2.77-0.193-5.416-0.476-8.003l-0.006-0.043c-0.304-2.751-0.744-5.413-1.366-7.959
		c-0.507-2.07-1.081-4.091-1.797-6.021c-0.165-0.442-0.37-0.843-0.542-1.275l-0.021-0.043c-0.943-2.358-2.02-4.586-3.233-6.682
		l-0.013,0.008l0.013-0.01c-1.248-2.154-2.639-4.169-4.172-6.044c-0.757-0.929-1.517-1.86-2.345-2.721
		c-4.442-4.616-9.789-8.157-16.04-10.625C67.776,2.534,60.867,1.301,53.3,1.301c-7.638,0-14.599,1.233-20.885,3.695
		c-6.282,2.468-11.663,6.009-16.143,10.625c-4.475,4.618-7.932,10.204-10.36,16.767C3.482,38.949,2.267,46.29,2.267,54.414
		c0,8.264,1.215,15.69,3.646,22.287c0.071,0.196,0.166,0.374,0.241,0.57c0.908,2.386,1.979,4.611,3.161,6.735l0.031-0.017
		l-0.028,0.02c1.209,2.174,2.531,4.241,4.029,6.14l0.062,0.01l-0.035,0.022c0.919,1.16,1.875,2.281,2.897,3.339
		c0,0,1.474,1.385,2.223,2.059l0.011-0.004l-0.008,0.006c1.918,1.724,3.979,3.279,6.191,4.662l0.29-0.158l-0.257,0.176
		c2.328,1.45,4.783,2.746,7.433,3.819c0.09,0.035,0.171,0.081,0.26,0.115c2.807,1.113,5.768,1.943,8.843,2.562l0.059,0.013
		c3.6,0.716,7.372,1.111,11.338,1.146c0.222,0.002,0.427,0.041,0.646,0.026c5.396,0,10.44-0.661,15.165-1.934l0.054-0.036
		l-0.021,0.029c0.071-0.021,0.147-0.033,0.223-0.054l3.437,4.704l0.85,1.164l4.33,5.938l0.026,0.035l4.33,5.936l4.328,5.93
		l-0.008,0.009l4.333,5.935l0.542,0.679c0.719,0.984,1.834,1.507,2.969,1.507c0.752,0,1.509-0.229,2.164-0.707
		c1.638-1.194,1.996-3.492,0.799-5.133l-0.334-0.455l-4.399-5.969l0.008-0.005l-4.331-5.938l-4.333-5.936l-0.025-0.036l-4.329-5.935
		l-0.009,0.006l0.005-0.005l-0.003,0.001l0.005-0.002l-4.331-5.938l-0.026,0.003l0.02-0.013l-1.815-2.485l-0.533-0.748
		c-0.738-1.016-1.984-2.698-1.984-2.698l-0.033,0.022l0.033-0.024l-4.329-5.937l-0.027-0.035l-1.269-1.737
		c-0.149-0.205-1.758-2.162-1.758-2.162c-2.009,0.857-4.248,1.41-6.714,1.658c-0.967,0.099-1.962,0.162-3.004,0.162
		c-3.126,0-5.927-0.424-8.421-1.251l-0.242,0.166l0.202-0.182c-2.685-0.896-4.988-2.296-6.938-4.153
		c-0.935-0.889-1.808-1.854-2.571-2.964c-0.633-0.919-1.194-1.936-1.724-2.996l-0.061,0.041l0.039-0.082
		c-1.045-2.109-1.902-4.483-2.537-7.159l-0.021,0.013l0.017-0.015c-0.582-2.445-0.978-5.146-1.217-8.062
		c-0.17-2.053-0.273-4.194-0.273-6.477c0-10.898,1.924-19.146,5.775-24.734c3.856-5.588,9.846-8.383,17.97-8.383
		c7.982,0,13.884,2.795,17.7,8.383c0.469,0.687,0.906,1.414,1.318,2.179c1.106,2.062,1.981,4.433,2.674,7.066l0.014-0.007
		l-0.014,0.01c0.633,2.414,1.104,5.043,1.389,7.943l0.006,0.054c0.229,2.341,0.344,4.831,0.344,7.489
		c0,0.41-0.024,0.787-0.029,1.188c-0.049,3.411-0.3,6.537-0.739,9.399l-0.008,0.051c-0.275,1.781-0.601,3.5-1.024,5.079
		c0,0,1.366,1.526,1.468,1.63l1.099,1.132l0.744,0.768l4.441,4.583l0.032,0.032l5.188,5.352l5.187,5.35l0.051-0.018l-0.041,0.027
		l5.188,5.351l3.636,3.75l0.001,0.001l1.551,1.6l0.033,0.033l5.186,5.351l5.188,5.351l0.025,0.024l5.188,5.352l5.188,5.351
		l0.029,0.032l5.188,5.348l5.188,5.349l0.017-0.006l2.279,2.352l-0.004,0.003l2.129,2.194c0.722,0.744,1.679,1.116,2.638,1.116
		c0.921,0,1.842-0.345,2.557-1.035C145.762,135.296,145.797,132.97,144.385,131.515z"/>
</g>
<path fill="#FFFFFF" d="M326.759,40.177l-0.38,0.201l0.378-0.258c-0.031-2.915-0.279-5.709-0.74-8.388l-0.028,0.019l0.026-0.019
	c-0.104-0.596-0.217-1.186-0.34-1.771c-0.394-1.872-0.887-3.688-1.5-5.436c-0.041-0.116-0.097-0.221-0.138-0.337
	c-1.729-4.782-4.209-8.929-7.467-12.422c-3.33-3.576-7.395-6.353-12.184-8.331c-4.787-1.979-10.203-2.969-16.247-2.969
	c-8.403,0-16.213,1.354-23.432,4.062c-7.224,2.708-13.818,6.84-19.786,12.395l4.788,8.332c0.765,1.318,1.787,2.447,3.071,3.384
	c1.286,0.938,2.83,1.407,4.638,1.407c2.08,0,3.959-0.45,5.624-1.354c1.665-0.9,3.468-1.891,5.416-2.969
	c1.938-1.076,4.181-2.064,6.717-2.969c2.53-0.901,5.745-1.354,9.632-1.354c1.525,0,2.933,0.15,4.249,0.418
	c0.774,0.158,1.512,0.361,2.215,0.61c0.017,0.006,0.032,0.01,0.048,0.016c0.301,0.107,0.589,0.229,0.875,0.353
	c0.142,0.062,0.28,0.126,0.417,0.19c0.246,0.115,0.491,0.232,0.728,0.361c0.345,0.19,0.681,0.393,1.004,0.609
	c0.141,0.095,0.272,0.2,0.411,0.3c0.248,0.183,0.492,0.371,0.727,0.57c0.114,0.098,0.229,0.193,0.339,0.296
	c0.334,0.305,0.66,0.621,0.965,0.964c2.66,2.996,4.033,7.638,4.146,13.89c0.006,0.269,0.021,0.521,0.021,0.794v5.521
	c-3.516,0.083-6.834,0.258-10,0.503c-7.337,0.566-13.756,1.557-19.212,2.987c-7.811,2.047-14.062,4.614-18.749,7.706
	c-4.688,3.09-8.003,6.545-9.945,10.36c-1.943,3.819-2.916,7.638-2.916,11.457c0,0.739,0.051,1.44,0.089,2.151
	c0.15,2.878,0.612,5.529,1.384,7.946l0.026-0.018l-0.023,0.021c0.22,0.69,0.44,1.38,0.712,2.032c0.701,1.684,1.549,3.229,2.53,4.646
	l0.021,0.037c1.057,1.521,2.267,2.897,3.647,4.114c0.493,0.438,1.022,0.833,1.549,1.229l0.007-0.003l-0.007,0.005
	c2.156,1.622,4.602,2.918,7.332,3.885l0.157-0.065l-0.119,0.082c0.207,0.072,0.396,0.164,0.607,0.231
	c2.936,0.97,6.122,1.534,9.541,1.731c0.871,0.048,1.74,0.091,2.643,0.091c3.609,0,6.896-0.296,9.845-0.886
	c0.936-0.188,1.817-0.453,2.717-0.698l0.798-0.492l-0.671,0.459c1.895-0.522,3.744-1.131,5.488-1.924
	c2.603-1.179,5.117-2.637,7.547-4.373c2.431-1.736,4.966-3.75,7.604-6.041l1.938,5.806l0.012-0.004l-0.012,0.007l0.355,1.065
	c0.764,2.222,1.807,3.697,3.123,4.427c0.274,0.151,0.592,0.277,0.916,0.396c1.239,0.459,2.834,0.695,4.812,0.695h12.084V93.626
	v-8.895l-0.007,0.005l0.007-0.008v-8.893v-0.056v-2v-2.894v-4v-8.894l-0.322,0.174l0.322-0.22v-8.895v-8.281
	C326.781,40.571,326.761,40.379,326.759,40.177z M300.952,75.642v3.354c-3.402,3.541-6.824,6.162-10.263,7.862
	c-2.804,1.391-6.062,2.181-9.718,2.436c-0.025,0.002-0.051,0.009-0.077,0.012l0.009-0.009c-0.803,0.056-1.602,0.113-2.446,0.113
	c-3.295,0-5.988-0.609-8.146-1.771c-0.479-0.261-0.962-0.514-1.387-0.83c-0.627-0.468-1.161-1.033-1.609-1.688
	c-0.645-0.942-1.109-2.07-1.418-3.361c0,0-0.037,0.009-0.092,0.022l0.079-0.068c-0.266-1.131-0.448-2.349-0.448-3.758
	c0-2.083,0.572-4.026,1.717-5.834c0.078-0.121,0.188-0.235,0.273-0.354l-0.014,0.007l0.014-0.009
	c0.203-0.286,0.433-0.565,0.675-0.842c0.565-0.643,1.239-1.255,2.021-1.835c0.026-0.021,0.052-0.039,0.079-0.06
	c0.37-0.271,0.767-0.532,1.186-0.788c0.065-0.04,0.132-0.078,0.198-0.117c0.426-0.253,0.871-0.501,1.348-0.739
	c0.741-0.37,1.566-0.719,2.447-1.053l0.01-0.007l-0.007,0.007c2.33-0.888,5.133-1.648,8.433-2.281
	c2.794-0.531,6.079-0.938,9.748-1.25l0.338-0.231l-0.245,0.225c2.282-0.191,4.678-0.354,7.295-0.46v4.37l0.017-0.01l-0.017,0.013
	v2.997V75.6l0.37-0.253L300.952,75.642z"/>
<path fill="#FFFFFF" d="M196.051,2.503v31.211v0.21v8.687v8.895l0.288-0.141l-0.288,0.195v8.895v5.488v3.406v7.722
	c-3.123,3.059-6.458,5.471-9.996,7.238c-3.543,1.772-7.295,2.657-11.248,2.657c-1.42,0-2.74-0.118-3.976-0.344l-0.41,0.279
	l0.364-0.29c-0.879-0.161-1.709-0.383-2.491-0.659c-0.503-0.179-0.984-0.383-1.448-0.606c-0.161-0.078-0.308-0.173-0.464-0.257
	c-0.294-0.157-0.59-0.313-0.868-0.491c-0.799-0.512-1.533-1.103-2.195-1.779l-0.007,0.002l0.007-0.005
	c-0.236-0.241-0.479-0.479-0.699-0.744c-1.302-1.567-2.271-3.467-2.947-5.657l-0.121,0.083l0.105-0.124
	c-0.722-2.359-1.099-5.064-1.099-8.146l-0.01,0.007l0.01-0.009V68.22v-8.889V48.23V2.503h-26.453v43.031V68.22
	c0,3.055,0.225,5.966,0.645,8.744c0.372,2.466,0.894,4.834,1.595,7.084c0.062,0.2,0.145,0.383,0.21,0.58
	c0.808,2.463,1.812,4.74,3.004,6.844l0.182-0.071l-0.158,0.108c1,1.762,2.108,3.422,3.379,4.934
	c0.299,0.354,0.635,0.668,0.947,1.008c1.729,1.875,3.68,3.511,5.854,4.896l0.317-0.177l-0.287,0.196
	c1.266,0.806,2.579,1.56,3.996,2.198c1.205,0.542,2.47,0.992,3.777,1.384c0.827,0.246,1.674,0.464,2.541,0.65
	c0.005,0.001,0.01,0.003,0.015,0.004c0.002,0,0.007,0,0.009,0.001c2.564,0.554,5.309,0.844,8.232,0.861l0.408-0.124
	c-0.217,0.087-0.334,0.13-0.334,0.13c0.086,0,0.162,0.01,0.248,0.01c6.803,0,12.685-1.285,17.65-3.852
	c4.965-2.569,9.495-5.902,13.59-10l0.262,1.043l1.617,6.456c0.086,0.396,0.194,0.765,0.328,1.107
	c0.41,1.057,1.049,1.887,1.908,2.485c1.145,0.798,2.551,1.197,4.217,1.197h16.248V86.951v-8.895l-0.008,0.006l0.008-0.008V69.16
	c0,0-0.033,0.007-0.092,0.021l0.092-0.075v-8.895l-0.035,0.023l0.035-0.025v-8.938v-6.954V42.38l-0.02,0.013l0.02-0.016v-8.892
	l-0.214,0.146l0.214-0.205v-8.891l-0.019,0.012l0.019-0.015v-2.01V15.64V2.503H196.051z"/>
</svg>
